# xmcd
#
# Track frame offsets:
#	150
#	13118
#	24909
#	37200
#	50648
#	65654
#	78568
#	91039
#	101888
#	116304
#	130358
#	140027
#	155007
#	166118
#	177221
#	188783
#	200415
#	215560
#	229514
#	244097
#	256241
#	268387
#	279414
#	290108
#
# Disc length: 3996 seconds
#
# Revision: 1
# Processed by: cddbd v1.5.2PL0 Copyright (c) Steve Scherf et al.
# Submitted via: EasyCDDAExtractor 2010.6.0.0
#
DISCID=670f9a18
DTITLE=Various Artist - La Fiesta Del 40 Tangos Para Bailar-04
DYEAR=2011
DGENRE=Tango
TTITLE0=Angel D'agostino - Gil A Rayas
TTITLE1=Angel D'agostino - Racing Club
TTITLE2=Angel D'agostino - Con Sabor A Tango
TTITLE3=Angel D'agostino - Cafe Dominguez
TTITLE4=Edgardo Donato - Tierrita
TTITLE5=Edgardo Donato - Elegante Papirusa
TTITLE6=Edgardo Donato - La Tablada
TTITLE7=Edgardo Donato - El Chamuyo
TTITLE8=Emilio Balcarce - La Pulpera De Santa Lucia
TTITLE9=Emilio Balcarce - Unitaria
TTITLE10=Emilio Balcarce - Idilio Trunco
TTITLE11=Emilio Balcarce - Luna De Arrabal
TTITLE12=Rodolfo Biagi - Union Civica
TTITLE13=Rodolfo Biagi - El Trece
TTITLE14=Rodolfo Biagi - Pura Clase
TTITLE15=Rodolfo Biagi - La Maleva
TTITLE16=Osvaldo Pugliese - Mala Junta
TTITLE17=Osvaldo Pugliese - El Arranque
TTITLE18=Osvaldo Pugliese - Boedo
TTITLE19=Osvaldo Pugliese - Mala Pinta
TTITLE20=Carlos Di Sarli - Zorzal
TTITLE21=Carlos Di Sarli - Pena Mulata
TTITLE22=Carlos Di Sarli - La Mulateada
TTITLE23=Carlos Di Sarli - Cuando Un Viejo Se Enamora
EXTD=
EXTT0=
EXTT1=
EXTT2=
EXTT3=
EXTT4=
EXTT5=
EXTT6=
EXTT7=
EXTT8=PERFORMER=Alberto Castillo
EXTT9=PERFORMER=Alberto Castillo
EXTT10=PERFORMER=Alberto Castillo
EXTT11=PERFORMER=Alberto Castillo
EXTT12=
EXTT13=
EXTT14=
EXTT15=
EXTT16=
EXTT17=
EXTT18=
EXTT19=
EXTT20=PERFORMER=Roberto Rufino
EXTT21=PERFORMER=Roberto Rufino
EXTT22=PERFORMER=Roberto Rufino
EXTT23=PERFORMER=Roberto Rufino
PLAYORDER=
